<svg xmlns="http://www.w3.org/2000/svg" version="1.1" xmlns:xlink="http://www.w3.org/1999/xlink" xmlns:svgjs="http://svgjs.dev/svgjs" width="308" height="304" viewBox="0 0 1000 1000"><rect width="1000" height="1000" fill="#ffffff"></rect><g transform="matrix(0.7,0,0,0.7,149.57575757575756,282.1265587044535)"><svg viewBox="0 0 396 247" data-background-color="#ffffff" preserveAspectRatio="xMidYMid meet" height="623" width="1000" xmlns="http://www.w3.org/2000/svg" xmlns:xlink="http://www.w3.org/1999/xlink"><g id="tight-bounds" transform="matrix(1,0,0,1,0.2400000000000091,-0.09999999999999432)"><svg viewBox="0 0 395.52 247.2" height="247.2" width="395.52"><g><svg></svg></g><g><svg viewBox="0 0 395.52 247.2" height="247.2" width="395.52"><g transform="matrix(1,0,0,1,75.54432,77.46311001540832)"><svg viewBox="0 0 244.43135999999998 92.27377996918335" height="92.27377996918335" width="244.43135999999998"><g><svg viewBox="0 0 244.43135999999998 92.27377996918335" height="92.27377996918335" width="244.43135999999998"><g><svg viewBox="0 0 244.43135999999998 92.27377996918335" height="92.27377996918335" width="244.43135999999998"><g><svg viewBox="0 0 244.43135999999998 92.27377996918335" height="92.27377996918335" width="244.43135999999998"><g id="textblocktransform"><svg viewBox="0 0 244.43135999999998 92.27377996918335" height="92.27377996918335" width="244.43135999999998" id="textblock"><g><svg viewBox="0 0 244.43135999999998 92.27377996918335" height="92.27377996918335" width="244.43135999999998"><g transform="matrix(1,0,0,1,0,0)"><svg width="244.43135999999998" viewBox="3.75 -36.150001525878906 97.33999633789062 36.75" height="92.27377996918335" data-palette-color="#1c4b82"><path d="M3.75 0L3.75-34.3 21.7-34.3Q27.05-34.3 29.85-31.6 32.65-28.9 32.65-24.25L32.65-24.25Q32.65-20.7 31.05-18.2 29.45-15.7 26.45-14.55L26.45-14.55 34.05 0 28 0 20.95-13.75 9.3-13.75 9.3 0 3.75 0ZM9.3-18.45L21.35-18.45Q24-18.45 25.53-19.98 27.05-21.5 27.05-24.2L27.05-24.2Q27.05-26.75 25.6-28.15 24.15-29.55 21.35-29.55L21.35-29.55 9.3-29.55 9.3-18.45ZM46.3 0.6Q43.05 0.6 40.42-1 37.8-2.6 37.8-6.8L37.8-6.8Q37.8-11.85 42.2-13.8 46.6-15.75 54.8-15.75L54.8-15.75 54.8-18.35Q54.8-20.5 53.67-21.63 52.55-22.75 49.5-22.75L49.5-22.75Q46.55-22.75 45.32-21.7 44.1-20.65 44.1-19.15L44.1-19.15 44.1-18.5 39.1-18.5Q39.05-18.8 39.05-19.6L39.05-19.6Q39.05-23.05 41.95-24.98 44.85-26.9 49.7-26.9L49.7-26.9Q54.8-26.9 57.37-24.8 59.95-22.7 59.95-18.85L59.95-18.85 59.95-5.4Q59.95-4.5 60.45-4.08 60.95-3.65 61.7-3.65L61.7-3.65 63.5-3.65 63.5-0.2Q62.2 0.45 59.95 0.45L59.95 0.45Q58.15 0.45 56.92-0.53 55.7-1.5 55.3-3.2L55.3-3.2 54.95-3.2Q53.55-1.4 51.37-0.4 49.2 0.6 46.3 0.6L46.3 0.6ZM47.8-3.6Q50.75-3.6 52.77-5.38 54.8-7.15 54.8-10.25L54.8-10.25 54.8-11.85Q49.1-11.85 46.1-10.88 43.1-9.9 43.1-7.2L43.1-7.2Q43.1-5.35 44.27-4.48 45.45-3.6 47.8-3.6L47.8-3.6ZM67.3-30.9L67.3-36.15 72.4-36.15 72.4-30.9 67.3-30.9ZM67.3 0L67.3-26.3 72.45-26.3 72.45 0 67.3 0ZM88.04 0.6Q83.04 0.6 80.34-2.78 77.64-6.15 77.64-13.15L77.64-13.15Q77.64-20.05 80.34-23.48 83.04-26.9 87.69-26.9L87.69-26.9Q93.14-26.9 95.64-23.3L95.64-23.3 95.94-23.3 95.94-36.15 101.09-36.15 101.09 0 96.99 0 96.49-3.5 96.14-3.5Q94.89-1.5 92.77-0.45 90.64 0.6 88.04 0.6L88.04 0.6ZM89.49-3.75Q92.84-3.75 94.39-6.05 95.94-8.35 95.94-12.85L95.94-12.85 95.94-13.25Q95.94-22.55 89.49-22.55L89.49-22.55Q85.94-22.55 84.44-20.43 82.94-18.3 82.94-13.3L82.94-13.3 82.94-12.85Q82.94-7.95 84.44-5.85 85.94-3.75 89.49-3.75L89.49-3.75Z" opacity="1" transform="matrix(1,0,0,1,0,0)" fill="#1c4b82" class="undefined-text-0" data-fill-palette-color="primary" id="text-0"></path></svg></g></svg></g></svg></g></svg></g><g></g></svg></g></svg></g></svg></g><g><path d="M96.155 55.679A122.216 122.216 0 0 1 299.365 55.679L291.043 55.679A113.894 113.894 0 0 0 104.477 55.679L96.155 55.679M96.155 191.521A122.216 122.216 0 0 0 299.365 191.521L291.043 191.521A113.894 113.894 0 0 1 104.477 191.521L96.155 191.521" fill="#1c4b82" stroke="transparent" data-fill-palette-color="tertiary"></path></g></svg></g><defs></defs></svg><rect width="395.52" height="247.2" fill="none" stroke="none" visibility="hidden"></rect></g></svg></g></svg>